# xmcd
#
# Track frame offsets: 
#        150
#        21483
#        40862
#        57336
#        70148
#        87761
#        108083
#        126950
#        139701
#        157453
#        170088
#        186618
#
# Disc length: 2754 seconds
#
# Revision: 0
# Processed by: cddbd v1.5.2PL0 Copyright (c) Steve Scherf et al.
# Submitted via: ExactAudioCopy v0.99pb4
#
DISCID=b20ac00c
DTITLE=John Oates - The Bluesville Session
DYEAR=2012
DGENRE=Blues
TTITLE0=Mississippi Mile
TTITLE1=Searchin'
TTITLE2=Come Back Baby
TTITLE3=It s Alright
TTITLE4=All Shook Up
TTITLE5=Send Me Someone To Love
TTITLE6=Something You Got
TTITLE7=Deep River
TTITLE8=Sittin' On Top Of The World
TTITLE9=He Was A Friend of Mine
TTITLE10=Dance Hall Girls
TTITLE11=Maneater
EXTD=
EXTT0=
EXTT1=
EXTT2=
EXTT3=
EXTT4=
EXTT5=
EXTT6=
EXTT7=
EXTT8=
EXTT9=
EXTT10=
EXTT11=
PLAYORDER=
